<svg style="position: absolute; width: 0; height: 0; overflow: hidden;" version="1.1" xmlns="http://www.w3.org/2000/svg" xmlns:xlink="http://www.w3.org/1999/xlink">
<defs>
<symbol id="heart" viewBox="0 0 24 24">
<title>heart</title>
<path d="M12 10.375c0-2.416-1.959-4.375-4.375-4.375s-4.375 1.959-4.375 4.375c0 1.127 0.159 2.784 1.75 4.375s7 5.25 7 5.25 5.409-3.659 7-5.25 1.75-3.248 1.75-4.375c0-2.416-1.959-4.375-4.375-4.375s-4.375 1.959-4.375 4.375"></path>
</symbol>
<symbol id="social-twitter" viewBox="0 0 24 24">
<title>social-twitter</title>
<path d="M18.89 7.012c0.808-0.496 1.343-1.173 1.605-2.034-0.786 0.417-1.569 0.703-2.351 0.861-0.703-0.756-1.593-1.14-2.66-1.14-1.043 0-1.924 0.366-2.643 1.078-0.715 0.717-1.076 1.588-1.076 2.605 0 0.309 0.039 0.585 0.117 0.819-3.076-0.105-5.622-1.381-7.628-3.837-0.34 0.601-0.51 1.213-0.51 1.846 0 1.301 0.549 2.332 1.645 3.089-0.625-0.053-1.176-0.211-1.645-0.47 0 0.929 0.273 1.705 0.82 2.388 0.549 0.676 1.254 1.107 2.115 1.291-0.312 0.080-0.641 0.118-0.979 0.118-0.312 0-0.533-0.026-0.664-0.083 0.23 0.757 0.664 1.371 1.291 1.841 0.625 0.472 1.344 0.721 2.152 0.743-1.332 1.045-2.855 1.562-4.578 1.562-0.422 0-0.721-0.006-0.902-0.038 1.697 1.102 3.586 1.649 5.676 1.649 2.139 0 4.029-0.542 5.674-1.626 1.645-1.078 2.859-2.408 3.639-3.974 0.784-1.564 1.172-3.192 1.172-4.892v-0.468c0.758-0.57 1.371-1.212 1.84-1.921-0.68 0.293-1.383 0.492-2.11 0.593z"></path>
</symbol>
<symbol id="social-facebook" viewBox="0 0 24 24">
<title>social-facebook</title>
<path d="M13 10h3v3h-3v7h-3v-7h-3v-3h3v-1.255c0-1.189 0.374-2.691 1.118-3.512 0.744-0.823 1.673-1.233 2.786-1.233h2.096v3h-2.1c-0.498 0-0.9 0.402-0.9 0.899v2.101z"></path>
</symbol>
<symbol id="social-github" viewBox="0 0 24 24">
<title>social-github</title>
<path d="M14.435 12.973c0.269 0 0.492 0.133 0.686 0.396 0.192 0.265 0.294 0.588 0.294 0.975 0 0.385-0.102 0.711-0.294 0.973-0.193 0.265-0.417 0.396-0.686 0.396-0.278 0-0.522-0.131-0.715-0.396-0.192-0.262-0.294-0.588-0.294-0.973 0-0.387 0.102-0.71 0.294-0.975 0.192-0.264 0.436-0.396 0.715-0.396M17.875 9.414c0.746 0.811 1.125 1.795 1.125 2.953 0 0.748-0.086 1.423-0.259 2.023-0.175 0.597-0.394 1.084-0.654 1.459-0.264 0.376-0.588 0.705-0.974 0.989-0.386 0.286-0.741 0.492-1.065 0.623-0.325 0.132-0.695 0.233-1.111 0.306-0.417 0.071-0.726 0.111-0.943 0.123-0.213 0.009-0.438 0.014-0.685 0.014-0.055 0-0.243 0.004-0.547 0.015-0.301 0.013-0.56 0.016-0.762 0.016s-0.461-0.003-0.762-0.016c-0.304-0.011-0.492-0.015-0.547-0.015-0.246 0-0.472-0.005-0.685-0.014-0.218-0.012-0.526-0.052-0.943-0.123-0.423-0.072-0.786-0.174-1.111-0.306-0.324-0.131-0.68-0.337-1.064-0.623-0.387-0.284-0.711-0.613-0.975-0.989-0.261-0.375-0.479-0.862-0.654-1.459-0.173-0.6-0.259-1.275-0.259-2.023 0-1.158 0.379-2.143 1.125-2.953-0.082-0.041-0.085-0.447-0.008-1.217 0.063-0.771 0.227-1.482 0.495-2.132 0.934 0.099 2.090 0.629 3.471 1.581 0.466-0.119 1.101-0.183 1.917-0.183 0.852 0 1.491 0.064 1.918 0.184 0.629-0.425 1.23-0.771 1.805-1.034 0.584-0.261 1.005-0.416 1.269-0.457l0.396-0.090c0.27 0.649 0.434 1.36 0.496 2.132 0.076 0.769 0.073 1.175-0.009 1.216M12.030 17.234c1.688 0 2.954-0.202 3.821-0.607 0.855-0.404 1.292-1.238 1.292-2.496 0-0.73-0.273-1.34-0.822-1.828-0.278-0.263-0.613-0.425-0.989-0.486s-0.949-0.061-1.72 0c-0.769 0.062-1.298 0.090-1.582 0.090-0.385 0-0.8-0.018-1.319-0.059-0.52-0.040-0.928-0.065-1.223-0.078-0.294-0.009-0.609 0.027-0.958 0.108-0.345 0.082-0.629 0.224-0.853 0.425-0.521 0.469-0.79 1.077-0.79 1.828 0 1.258 0.426 2.092 1.28 2.496 0.85 0.405 2.113 0.607 3.802 0.607h0.061M9.596 12.973c0.268 0 0.492 0.133 0.685 0.396 0.192 0.265 0.294 0.588 0.294 0.975 0 0.385-0.102 0.711-0.294 0.973-0.192 0.265-0.417 0.396-0.685 0.396-0.279 0-0.522-0.131-0.716-0.396-0.192-0.262-0.294-0.588-0.294-0.973 0-0.387 0.102-0.71 0.294-0.975 0.193-0.264 0.436-0.396 0.716-0.396"></path>
</symbol>
<symbol id="message" viewBox="0 0 24 24">
<title>message</title>
<path d="M18 7c0.542 0 1 0.458 1 1v7c0 0.542-0.458 1-1 1h-8.829l-0.171 0.171v-0.171h-3c-0.542 0-1-0.458-1-1v-7c0-0.542 0.458-1 1-1h12M18 5h-12c-1.65 0-3 1.35-3 3v7c0 1.65 1.35 3 3 3h1v3l3-3h8c1.65 0 3-1.35 3-3v-7c0-1.65-1.35-3-3-3z"></path>
</symbol>
<symbol id="time" viewBox="0 0 24 24">
<title>time</title>
<path d="M16 13c0-0.55-0.45-1-1-1h-3c-0.55 0-1 0.45-1 1s0.45 1 1 1h3c0.55 0 1-0.45 1-1z"></path>
<path d="M12 6c3.859 0 7 3.141 7 7s-3.141 7-7 7-7-3.141-7-7 3.141-7 7-7M12 4c-4.971 0-9 4.029-9 9s4.029 9 9 9 9-4.029 9-9-4.029-9-9-9z"></path>
<path d="M13 10c0-0.55-0.45-1-1-1s-1 0.45-1 1v3c0 0.55 0.45 1 1 1s1-0.45 1-1v-3z"></path>
<path d="M12 8c2.757 0 5 2.243 5 5s-2.243 5-5 5-5-2.243-5-5 2.243-5 5-5M12 7c-3.312 0-6 2.686-6 6 0 3.312 2.688 6 6 6s6-2.688 6-6c0-3.314-2.688-6-6-6z"></path>
</symbol>
<symbol id="zoom-outline" viewBox="0 0 24 24">
<title>zoom-outline</title>
<path d="M14 8c1.656 0 3 1.344 3 3s-1.344 3-3 3-3-1.344-3-3 1.344-3 3-3M14 7c-2.206 0-4 1.794-4 4s1.794 4 4 4 4-1.794 4-4-1.794-4-4-4z"></path>
<path d="M4.195 17.674c0 1.727 1.404 3.131 3.131 3.131 0.756 0 1.503-0.277 2.104-0.783l2.397-2.386c0.685 0.227 1.412 0.364 2.173 0.364 3.86 0 7-3.141 7-7s-3.14-7-7-7c-3.859 0-7 3.141-7 7 0 0.761 0.136 1.486 0.364 2.173l-2.245 2.283c-0.596 0.59-0.924 1.378-0.924 2.218zM10.654 15.98l-2.512 2.511c-0.223 0.187-0.504 0.313-0.816 0.313-0.624 0-1.131-0.506-1.131-1.131 0-0.311 0.127-0.594 0.332-0.797l2.492-2.531c0.435 0.645 0.99 1.2 1.635 1.635zM14 16c-2.757 0-5-2.243-5-5s2.243-5 5-5 5 2.243 5 5-2.243 5-5 5z"></path>
</symbol>
<symbol id="pencil" viewBox="0 0 24 24">
<title>pencil</title>
<path d="M21 6.879l-3.879-3.879c-0.293-0.293-0.678-0.439-1.061-0.439-0.384 0-0.767 0.146-1.060 0.439l-10.939 10.939c-0.293 0.293-0.558 0.727-0.75 1.188-0.192 0.463-0.311 0.959-0.311 1.373v4.5h4.5c0.414 0 0.908-0.119 1.371-0.311s0.896-0.457 1.189-0.75l10.94-10.939c0.293-0.293 0.439-0.678 0.439-1.061 0-0.384-0.146-0.767-0.439-1.060zM5.768 15.061l8.293-8.293 1.232 1.232-8.293 8.293-1.232-1.232zM7.5 19h-1.5l-1-1v-1.5c0-0.077 0.033-0.305 0.158-0.605 0.010-0.020 2.967 2.938 2.967 2.938-0.322 0.134-0.548 0.167-0.625 0.167zM8.939 18.232l-1.232-1.232 8.293-8.293 1.232 1.232-8.293 8.293zM17.939 9.232l-3.172-3.172 1.293-1.293 3.17 3.172-1.291 1.293z"></path>
</symbol>
<symbol id="folder" viewBox="0 0 24 24">
<title>folder</title>
<path d="M18 6h-6c0-1.104-0.896-2-2-2h-4c-1.654 0-3 1.346-3 3v10c0 1.654 1.346 3 3 3h12c1.654 0 3-1.346 3-3v-8c0-1.654-1.346-3-3-3zM6 6h4c0 1.104 0.896 2 2 2h6c0.552 0 1 0.448 1 1h-14v-2c0-0.552 0.448-1 1-1zM18 18h-12c-0.552 0-1-0.448-1-1v-7h14v7c0 0.552-0.448 1-1 1z"></path>
</symbol>
<symbol id="thumbs-up" viewBox="0 0 24 24">
<title>thumbs-up</title>
<path d="M19.57 8.676c-0.391-0.144-2.512-0.406-3.883-0.56 0.215-1.255 0.313-2.405 0.313-3.616 0-1.379-1.122-2.5-2.5-2.5s-2.5 1.121-2.5 2.5c0 1.875-0.666 2.738-1.616 3.699-0.548-0.722-1.407-1.199-2.384-1.199-1.654 0-3 1.346-3 3v6c0 1.654 1.346 3 3 3 0.755 0 1.438-0.29 1.965-0.752 0.064 0.062 0.117 0.141 0.188 0.193 0.96 0.736 3.667 1.559 5.848 1.559 1.879 0 2.608-0.293 3.253-0.553 0.104-0.041 0.207-0.084 0.316-0.123 0.834-0.305 1.576-1.227 1.736-2.2l0.666-5.974c0.173-1.037-0.443-2.125-1.402-2.474zM7 17c-0.551 0-1-0.448-1-1v-6c0-0.552 0.449-1 1-1s1 0.448 1 1v6c0 0.552-0.449 1-1 1zM18.327 16.85c-0.037 0.224-0.292 0.541-0.443 0.596-0.131 0.049-0.254 0.099-0.376 0.146-0.545 0.219-1.016 0.408-2.508 0.408-1.914 0-4.118-0.753-4.632-1.146-0.158-0.12-0.368-0.564-0.368-0.854v-4.98c0.003-0.047 0.051-0.656 0.707-1.312 0.913-0.914 2.293-2.294 2.293-5.208 0-0.275 0.225-0.5 0.5-0.5s0.5 0.225 0.5 0.5c0 1.407-0.146 2.73-0.479 4.293l-0.297 1.396 1.321-0.188c0.603 0.050 3.933 0.447 4.334 0.55 0.058 0.030 0.132 0.183 0.111 0.323l-0.663 5.976z"></path>
</symbol>
<symbol id="bookmark" viewBox="0 0 24 24">
<title>bookmark</title>
<path d="M17 2h-8c-1.654 0-3 1.346-3 3v14c0 0.514 0.104 0.946 0.308 1.285 0.564 0.935 1.815 1.008 2.813 0.008l3.172-3.172c0.375-0.374 1.039-0.374 1.414 0l3.172 3.172c0.491 0.491 1.002 0.74 1.52 0.74 0.797 0 1.601-0.629 1.601-2.033v-14c0-1.654-1.346-3-3-3zM9 4h8c0.551 0 1 0.449 1 1v9.905l-2.451-2.247c-1.406-1.289-3.693-1.288-5.099 0l-2.45 2.247v-9.905c0-0.551 0.449-1 1-1zM15.121 15.707c-0.565-0.565-1.318-0.876-2.121-0.876s-1.556 0.312-2.121 0.876l-2.879 2.879v-2.324l3.126-2.866c1.033-0.947 2.714-0.947 3.747 0l3.127 2.866v2.324l-2.879-2.879z"></path>
</symbol>
</defs>
</svg>
